# Blender v2.82 (sub 7) OBJ File: ''
# www.blender.org
mtllib finger0_segment0_collision.mtl
o finger0_segment0
v 0.011000 0.020000 0.016000
v 0.011000 0.020000 0.015990
v 0.011000 0.020000 0.015960
v 0.011000 0.020000 0.015920
v 0.011000 0.020000 0.015850
v 0.011000 0.020000 0.015770
v 0.011000 0.020000 0.015670
v 0.011000 0.020000 0.015550
v 0.011000 0.020000 0.015420
v 0.011000 0.020000 0.015270
v 0.011000 0.020000 0.015100
v 0.011000 0.020000 0.014920
v 0.011000 0.020000 0.014730
v 0.011000 0.020000 0.014520
v 0.011000 0.020000 0.014290
v 0.011000 0.020000 0.014060
v 0.011000 0.020000 0.013800
v 0.011000 0.020000 0.013540
v 0.011000 0.020000 0.013260
v 0.011000 0.020000 0.012970
v 0.011000 0.020000 0.012670
v 0.011000 0.020000 0.012360
v 0.011000 0.020000 0.012040
v 0.011000 0.020000 0.011700
v 0.011000 0.020000 0.011360
v 0.011000 0.020000 0.011000
v 0.011000 0.020000 0.010640
v 0.011000 0.020000 0.010260
v 0.011000 0.020000 0.009880
v 0.011000 0.020000 0.009490
v 0.011000 0.020000 0.009090
v 0.011000 0.020000 0.008680
v 0.011000 0.020000 0.008270
v 0.011000 0.020000 0.007850
v 0.011000 0.020000 0.007420
v 0.011000 0.020000 0.006980
v 0.011000 0.020000 0.006540
v 0.011000 0.020000 0.006100
v 0.011000 0.020000 0.005650
v 0.011000 0.020000 0.005190
v 0.011000 0.020000 0.004740
v 0.011000 0.020000 0.004270
v 0.011000 0.020000 0.003810
v 0.011000 0.020000 0.003340
v 0.011000 0.020000 0.002870
v 0.011000 0.020000 0.002390
v 0.011000 0.020000 0.001920
v 0.011000 0.020000 0.001440
v 0.011000 0.020000 0.000960
v 0.011000 0.020000 0.000480
v 0.011000 0.020000 0.000000
v 0.011000 0.020000 -0.000480
v 0.011000 0.020000 -0.000960
v 0.011000 0.020000 -0.001440
v 0.011000 0.020000 -0.001920
v 0.011000 0.020000 -0.002390
v 0.011000 0.020000 -0.002870
v 0.011000 0.020000 -0.003340
v 0.011000 0.020000 -0.003810
v 0.011000 0.020000 -0.004270
v 0.011000 0.020000 -0.004740
v 0.011000 0.020000 -0.005190
v 0.011000 0.020000 -0.005650
v 0.011000 0.020000 -0.006100
v 0.011000 0.020000 -0.006540
v 0.011000 0.020000 -0.006980
v 0.011000 0.020000 -0.007420
v 0.011000 0.020000 -0.007850
v 0.011000 0.020000 -0.008270
v 0.011000 0.020000 -0.008680
v 0.011000 0.020000 -0.009090
v 0.011000 0.020000 -0.009490
v 0.011000 0.020000 -0.009880
v 0.011000 0.020000 -0.010260
v 0.011000 0.020000 -0.010640
v 0.011000 0.020000 -0.011000
v 0.011000 0.020000 -0.011360
v 0.011000 0.020000 -0.011700
v 0.011000 0.020000 -0.012040
v 0.011000 0.020000 -0.012360
v 0.011000 0.020000 -0.012670
v 0.011000 0.020000 -0.012970
v 0.011000 0.020000 -0.013260
v 0.011000 0.020000 -0.013540
v 0.011000 0.020000 -0.013800
v 0.011000 0.020000 -0.014060
v 0.011000 0.020000 -0.014290
v 0.011000 0.020000 -0.014520
v 0.011000 0.020000 -0.014730
v 0.011000 0.020000 -0.014920
v 0.011000 0.020000 -0.015100
v 0.011000 0.020000 -0.015270
v 0.011000 0.020000 -0.015420
v 0.011000 0.020000 -0.015550
v 0.011000 0.020000 -0.015670
v 0.011000 0.020000 -0.015770
v 0.011000 0.020000 -0.015850
v 0.011000 0.020000 -0.015920
v 0.011000 0.020000 -0.015960
v 0.011000 0.020000 -0.015990
v 0.011000 0.020000 -0.016000
v 0.011000 0.097870 0.016000
v 0.011000 0.097870 0.015520
v 0.011000 0.097870 0.015060
v 0.011000 0.097870 0.014600
v 0.011000 0.097870 0.014150
v 0.011000 0.097870 0.013720
v 0.011000 0.097870 0.013290
v 0.011000 0.097870 0.012860
v 0.011000 0.097870 0.012450
v 0.011000 0.097880 0.012050
v 0.011000 0.097880 0.011650
v 0.011000 0.097870 0.011260
v 0.011000 0.097870 0.010880
v 0.011000 0.097870 0.010500
v 0.011000 0.097880 0.010130
v 0.011000 0.097870 0.009770
v 0.011000 0.097870 0.009420
v 0.011000 0.097870 0.009070
v 0.011000 0.097880 0.008730
v 0.011000 0.097870 0.008390
v 0.011000 0.097880 0.008060
v 0.011000 0.097880 0.007740
v 0.011000 0.097870 0.007420
v 0.011000 0.097870 0.007110
v 0.011000 0.097870 0.006800
v 0.011000 0.097870 0.006500
v 0.011000 0.097870 0.006200
v 0.011000 0.097870 0.005910
v 0.011000 0.097870 0.005620
v 0.011000 0.097870 0.005340
v 0.011000 0.097870 0.005060
v 0.011000 0.097870 0.004780
v 0.011000 0.097870 0.004510
v 0.011000 0.097870 0.004240
v 0.011000 0.097870 0.003970
v 0.011000 0.097870 0.003710
v 0.011000 0.097870 0.003450
v 0.011000 0.097870 0.003190
v 0.011000 0.097870 0.002940
v 0.011000 0.097870 0.002680
v 0.011000 0.097880 0.002430
v 0.011000 0.097870 0.002180
v 0.011000 0.097880 0.001940
v 0.011000 0.097880 0.001690
v 0.011000 0.097880 0.001450
v 0.011000 0.097880 0.001200
v 0.011000 0.097870 0.000960
v 0.011000 0.097870 0.000720
v 0.011000 0.097880 0.000480
v 0.011000 0.097870 0.000240
v 0.011000 0.097870 0.000000
v 0.011000 0.097870 -0.000240
v 0.011000 0.097880 -0.000480
v 0.011000 0.097870 -0.000720
v 0.011000 0.097870 -0.000960
v 0.011000 0.097870 -0.001200
v 0.011000 0.097870 -0.001450
v 0.011000 0.097870 -0.001690
v 0.011000 0.097880 -0.001940
v 0.011000 0.097870 -0.002180
v 0.011000 0.097880 -0.002430
v 0.011000 0.097870 -0.002680
v 0.011000 0.097870 -0.002940
v 0.011000 0.097870 -0.003190
v 0.011000 0.097880 -0.003450
v 0.011000 0.097870 -0.003710
v 0.011000 0.097870 -0.003970
v 0.011000 0.097870 -0.004240
v 0.011000 0.097870 -0.004510
v 0.011000 0.097870 -0.004780
v 0.011000 0.097870 -0.005060
v 0.011000 0.097870 -0.005340
v 0.011000 0.097870 -0.005620
v 0.011000 0.097870 -0.005910
v 0.011000 0.097870 -0.006200
v 0.011000 0.097880 -0.006500
v 0.011000 0.097870 -0.006800
v 0.011000 0.097870 -0.007110
v 0.011000 0.097880 -0.007420
v 0.011000 0.097880 -0.007740
v 0.011000 0.097880 -0.008060
v 0.011000 0.097870 -0.008390
v 0.011000 0.097870 -0.008730
v 0.011000 0.097870 -0.009070
v 0.011000 0.097870 -0.009420
v 0.011000 0.097870 -0.009770
v 0.011000 0.097870 -0.010130
v 0.011000 0.097870 -0.010500
v 0.011000 0.097870 -0.010880
v 0.011000 0.097870 -0.011260
v 0.011000 0.097870 -0.011650
v 0.011000 0.097870 -0.012050
v 0.011000 0.097870 -0.012450
v 0.011000 0.097870 -0.012860
v 0.011000 0.097870 -0.013290
v 0.011000 0.097870 -0.013720
v 0.011000 0.097870 -0.014150
v 0.011000 0.097870 -0.014600
v 0.011000 0.097870 -0.015060
v 0.011000 0.097870 -0.015520
v 0.011000 0.097870 -0.016000
v -0.011000 0.097875 0.016000
v -0.011000 0.097875 -0.016000
v -0.011000 0.020000 -0.016000
v -0.011000 0.020000 0.016000
vn 0.0000 -1.0000 0.0000
vn 0.0165 0.9998 -0.0141
vn 0.0000 0.0000 1.0000
vn 0.0000 0.0000 -1.0000
vn -1.0000 0.0000 0.0000
vn 1.0000 -0.0000 0.0000
vn 0.9623 0.2719 0.0000
vn -0.0000 -0.0005 1.0000
vn 0.0002 1.0000 0.0000
vn -0.0002 1.0000 0.0000
vn 0.0107 0.9995 -0.0303
vn 0.0142 0.9993 -0.0334
vn -0.0065 0.9998 0.0161
vn -0.0076 0.9998 0.0170
vn 0.0108 0.9998 -0.0192
vn 1.0000 -0.0002 0.0000
vn 1.0000 0.0001 0.0000
vn 1.0000 0.0002 0.0000
vn -0.0133 0.9997 0.0204
vn 0.0119 0.9997 -0.0196
vn -0.0114 0.9997 0.0196
vn 0.0292 0.9987 -0.0417
vn -0.0149 0.9997 0.0209
vn 0.0154 0.9997 -0.0209
vn -0.0167 0.9997 0.0196
vn 0.0169 0.9997 -0.0159
vn 1.0000 0.0003 0.0000
vn 0.0161 0.9998 -0.0130
vn -0.0161 0.9998 0.0133
vn 0.0020 0.9999 0.0124
vn -0.0165 0.9998 0.0145
usemtl None
s off
f 205//1 52//1 51//1
f 116//2 118//2 204//2
f 1//3 203//3 206//3
f 205//4 202//4 101//4
f 204//5 206//5 203//5
f 3//6 102//6 2//6
f 4//6 103//6 3//6
f 5//6 104//6 4//6
f 6//6 105//6 5//6
f 7//6 106//6 6//6
f 8//6 107//6 7//6
f 9//6 108//6 8//6
f 10//6 109//6 9//6
f 11//6 110//6 10//6
f 12//6 111//6 11//6
f 13//6 112//6 12//6
f 14//6 113//6 13//6
f 15//6 114//6 14//6
f 16//6 115//6 15//6
f 17//6 116//6 16//6
f 18//6 117//6 17//6
f 19//6 118//6 18//6
f 20//6 119//6 19//6
f 21//6 120//6 20//6
f 22//6 121//6 21//6
f 23//6 122//6 22//6
f 24//6 123//6 23//6
f 25//6 124//6 24//6
f 26//6 125//6 25//6
f 27//6 126//6 26//6
f 28//6 127//6 27//6
f 29//6 128//6 28//6
f 30//6 129//6 29//6
f 31//6 130//6 30//6
f 32//6 131//6 31//6
f 33//6 132//6 32//6
f 34//6 133//6 33//6
f 35//6 134//6 34//6
f 36//6 135//6 35//6
f 37//6 136//6 36//6
f 38//6 137//6 37//6
f 39//6 138//6 38//6
f 40//6 139//6 39//6
f 41//6 140//6 40//6
f 42//6 141//6 41//6
f 43//6 142//6 42//6
f 44//6 143//6 43//6
f 45//6 144//6 44//6
f 46//6 145//6 45//6
f 47//6 146//6 46//6
f 47//6 148//6 147//6
f 49//6 148//6 48//6
f 50//6 149//6 49//6
f 50//6 151//6 150//6
f 51//6 152//6 151//6
f 52//6 153//6 152//6
f 54//6 153//6 53//6
f 54//6 155//6 154//6
f 55//6 156//6 155//6
f 56//6 157//6 156//6
f 57//6 158//6 157//6
f 58//6 159//6 158//6
f 59//6 160//6 159//6
f 60//6 161//6 160//6
f 61//6 162//6 161//6
f 62//6 163//6 162//6
f 63//6 164//6 163//6
f 64//6 165//6 164//6
f 65//6 166//6 165//6
f 66//6 167//6 166//6
f 67//6 168//6 167//6
f 68//6 169//6 168//6
f 69//6 170//6 169//6
f 70//6 171//6 170//6
f 71//6 172//6 171//6
f 72//6 173//6 172//6
f 73//6 174//6 173//6
f 74//6 175//6 174//6
f 75//6 176//6 175//6
f 76//6 177//6 176//6
f 77//6 178//6 177//6
f 78//6 179//6 178//6
f 79//6 180//6 179//6
f 80//6 181//6 180//6
f 81//6 182//6 181//6
f 82//6 183//6 182//6
f 83//6 184//6 183//6
f 84//6 185//6 184//6
f 85//6 186//6 185//6
f 86//6 187//6 186//6
f 87//6 188//6 187//6
f 88//6 189//6 188//6
f 89//6 190//6 189//6
f 90//6 191//6 190//6
f 91//6 192//6 191//6
f 92//6 193//6 192//6
f 93//6 194//6 193//6
f 94//6 195//6 194//6
f 95//6 196//6 195//6
f 96//6 197//6 196//6
f 97//6 198//6 197//6
f 98//6 199//6 198//6
f 99//6 200//6 199//6
f 100//6 201//6 200//6
f 102//5 201//5 101//5
f 205//1 101//1 100//1
f 99//1 98//1 205//1
f 98//1 97//1 205//1
f 205//1 100//1 99//1
f 1//1 206//1 2//1
f 206//1 205//1 51//1
f 2//1 206//1 3//1
f 4//1 3//1 206//1
f 4//1 206//1 5//1
f 96//1 95//1 205//1
f 95//1 94//1 205//1
f 205//1 97//1 96//1
f 5//1 206//1 6//1
f 7//1 6//1 206//1
f 7//1 206//1 8//1
f 93//1 92//1 205//1
f 92//1 91//1 205//1
f 205//1 94//1 93//1
f 8//1 206//1 9//1
f 10//1 9//1 206//1
f 10//1 206//1 11//1
f 90//1 89//1 205//1
f 89//1 88//1 205//1
f 205//1 91//1 90//1
f 11//1 206//1 12//1
f 13//1 12//1 206//1
f 13//1 206//1 14//1
f 87//1 86//1 205//1
f 86//1 85//1 205//1
f 205//1 88//1 87//1
f 14//1 206//1 15//1
f 16//1 15//1 206//1
f 16//1 206//1 17//1
f 84//1 83//1 205//1
f 83//1 82//1 205//1
f 205//1 85//1 84//1
f 17//1 206//1 18//1
f 19//1 18//1 206//1
f 19//1 206//1 20//1
f 81//1 80//1 205//1
f 80//1 79//1 205//1
f 205//1 82//1 81//1
f 20//1 206//1 21//1
f 22//1 21//1 206//1
f 22//1 206//1 23//1
f 78//1 77//1 205//1
f 77//1 76//1 205//1
f 205//1 79//1 78//1
f 23//1 206//1 24//1
f 25//1 24//1 206//1
f 25//1 206//1 26//1
f 75//1 74//1 205//1
f 74//1 73//1 205//1
f 205//1 76//1 75//1
f 26//1 206//1 27//1
f 28//1 27//1 206//1
f 28//1 206//1 29//1
f 72//1 71//1 205//1
f 71//1 70//1 205//1
f 205//1 73//1 72//1
f 29//1 206//1 30//1
f 31//1 30//1 206//1
f 31//1 206//1 32//1
f 69//1 68//1 205//1
f 68//1 67//1 205//1
f 205//1 70//1 69//1
f 32//1 206//1 33//1
f 34//1 33//1 206//1
f 34//1 206//1 35//1
f 66//1 65//1 205//1
f 65//1 64//1 205//1
f 205//1 67//1 66//1
f 35//1 206//1 36//1
f 37//1 36//1 206//1
f 37//1 206//1 38//1
f 63//1 62//1 205//1
f 62//1 61//1 205//1
f 205//1 64//1 63//1
f 38//1 206//1 39//1
f 40//1 39//1 206//1
f 40//1 206//1 41//1
f 60//1 59//1 205//1
f 59//1 58//1 205//1
f 205//1 61//1 60//1
f 41//1 206//1 42//1
f 43//1 42//1 206//1
f 43//1 206//1 44//1
f 57//1 56//1 205//1
f 56//1 55//1 205//1
f 205//1 58//1 57//1
f 44//1 206//1 45//1
f 46//1 45//1 206//1
f 46//1 206//1 47//1
f 54//1 53//1 205//1
f 53//1 52//1 205//1
f 205//1 55//1 54//1
f 47//1 206//1 48//1
f 49//1 48//1 206//1
f 49//1 206//1 50//1
f 51//1 50//1 206//1
f 203//7 2//7 3//7
f 4//6 5//6 102//6
f 5//6 6//6 102//6
f 4//6 102//6 3//6
f 203//8 3//8 102//8
f 202//9 204//9 201//9
f 204//10 203//10 112//10
f 200//9 204//9 199//9
f 200//9 201//9 204//9
f 197//9 198//9 204//9
f 198//9 199//9 204//9
f 182//10 204//10 181//10
f 195//9 196//9 204//9
f 196//9 197//9 204//9
f 193//9 194//9 204//9
f 194//9 195//9 204//9
f 191//9 192//9 204//9
f 192//9 193//9 204//9
f 189//9 190//9 204//9
f 190//9 191//9 204//9
f 187//9 188//9 204//9
f 188//9 189//9 204//9
f 185//9 186//9 204//9
f 186//9 187//9 204//9
f 182//11 183//11 204//11
f 183//9 184//9 204//9
f 184//9 185//9 204//9
f 180//10 181//10 204//10
f 178//6 179//6 180//6
f 177//12 178//12 204//12
f 178//13 180//13 204//13
f 175//6 176//6 177//6
f 172//9 173//9 204//9
f 173//9 174//9 204//9
f 174//9 175//9 204//9
f 175//14 177//14 204//14
f 171//9 172//9 204//9
f 170//9 171//9 204//9
f 170//9 204//9 169//9
f 7//6 8//6 102//6
f 8//6 9//6 102//6
f 7//6 102//6 6//6
f 169//9 204//9 168//9
f 168//15 204//15 166//15
f 166//6 167//6 168//6
f 164//16 165//16 166//16
f 162//6 163//6 164//6
f 160//17 161//17 162//17
f 158//18 159//18 160//18
f 157//9 158//9 204//9
f 158//19 160//19 204//19
f 162//20 164//20 204//20
f 164//21 166//21 204//21
f 156//9 157//9 204//9
f 155//9 156//9 204//9
f 152//6 153//6 154//6
f 154//22 155//22 204//22
f 160//10 162//10 204//10
f 151//6 152//6 150//6
f 152//23 154//23 204//23
f 150//24 152//24 204//24
f 148//6 149//6 147//6
f 149//6 150//6 147//6
f 144//10 145//10 204//10
f 145//10 146//10 204//10
f 146//10 147//10 204//10
f 147//10 150//10 204//10
f 142//17 143//17 144//17
f 142//10 144//10 204//10
f 142//25 204//25 140//25
f 140//6 141//6 142//6
f 138//9 139//9 204//9
f 139//9 140//9 204//9
f 135//9 136//9 204//9
f 136//9 137//9 204//9
f 137//9 138//9 204//9
f 134//9 135//9 204//9
f 132//9 133//9 204//9
f 133//9 134//9 204//9
f 129//9 130//9 204//9
f 130//9 131//9 204//9
f 131//9 132//9 204//9
f 128//9 129//9 204//9
f 126//9 127//9 204//9
f 127//9 128//9 204//9
f 124//6 125//6 123//6
f 125//9 126//9 204//9
f 123//26 125//26 204//26
f 120//6 121//6 122//6
f 120//10 122//10 204//10
f 122//10 123//10 204//10
f 118//6 119//6 120//6
f 116//27 117//27 118//27
f 114//6 115//6 116//6
f 112//18 113//18 114//18
f 109//16 110//16 111//16
f 112//28 114//28 204//28
f 114//29 116//29 204//29
f 108//9 109//9 203//9
f 109//30 111//30 203//30
f 107//9 108//9 203//9
f 105//9 106//9 203//9
f 106//9 107//9 203//9
f 103//9 104//9 203//9
f 104//9 105//9 203//9
f 100//6 101//6 102//6
f 99//6 100//6 102//6
f 98//6 99//6 102//6
f 102//9 103//9 203//9
f 97//6 98//6 102//6
f 94//6 95//6 102//6
f 95//6 96//6 102//6
f 96//6 97//6 102//6
f 92//6 93//6 102//6
f 93//6 94//6 102//6
f 89//6 90//6 102//6
f 90//6 91//6 102//6
f 91//6 92//6 102//6
f 88//6 89//6 102//6
f 85//6 86//6 102//6
f 86//6 87//6 102//6
f 84//6 85//6 102//6
f 87//6 88//6 102//6
f 82//6 83//6 102//6
f 83//6 84//6 102//6
f 80//6 81//6 102//6
f 81//6 82//6 102//6
f 78//6 79//6 102//6
f 79//6 80//6 102//6
f 76//6 77//6 102//6
f 77//6 78//6 102//6
f 73//6 74//6 102//6
f 74//6 75//6 102//6
f 72//6 73//6 102//6
f 75//6 76//6 102//6
f 70//6 71//6 102//6
f 71//6 72//6 102//6
f 68//6 69//6 102//6
f 69//6 70//6 102//6
f 66//6 67//6 102//6
f 67//6 68//6 102//6
f 64//6 65//6 102//6
f 65//6 66//6 102//6
f 61//6 62//6 102//6
f 62//6 63//6 102//6
f 63//6 64//6 102//6
f 60//6 61//6 102//6
f 58//6 59//6 102//6
f 59//6 60//6 102//6
f 55//6 56//6 102//6
f 56//6 57//6 102//6
f 54//6 55//6 102//6
f 57//6 58//6 102//6
f 53//6 54//6 102//6
f 51//6 52//6 102//6
f 52//6 53//6 102//6
f 49//6 50//6 102//6
f 50//6 51//6 102//6
f 46//6 47//6 102//6
f 47//6 48//6 102//6
f 48//6 49//6 102//6
f 45//6 46//6 102//6
f 44//6 45//6 102//6
f 41//6 42//6 102//6
f 42//6 43//6 102//6
f 43//6 44//6 102//6
f 39//6 40//6 102//6
f 40//6 41//6 102//6
f 36//6 37//6 102//6
f 37//6 38//6 102//6
f 38//6 39//6 102//6
f 35//6 36//6 102//6
f 34//6 35//6 102//6
f 32//6 33//6 102//6
f 33//6 34//6 102//6
f 30//6 31//6 102//6
f 31//6 32//6 102//6
f 28//6 29//6 102//6
f 29//6 30//6 102//6
f 26//6 27//6 102//6
f 27//6 28//6 102//6
f 23//6 24//6 102//6
f 24//6 25//6 102//6
f 25//6 26//6 102//6
f 20//6 21//6 102//6
f 21//6 22//6 102//6
f 22//6 23//6 102//6
f 18//6 19//6 102//6
f 19//6 20//6 102//6
f 15//6 16//6 102//6
f 16//6 17//6 102//6
f 17//6 18//6 102//6
f 13//6 14//6 102//6
f 14//6 15//6 102//6
f 12//6 13//6 102//6
f 11//6 12//6 102//6
f 10//6 11//6 102//6
f 9//6 10//6 102//6
f 203//10 111//10 112//10
f 120//31 204//31 118//31
f 1//7 2//7 203//7
f 205//4 204//4 202//4
f 204//5 205//5 206//5
f 3//6 103//6 102//6
f 4//6 104//6 103//6
f 5//6 105//6 104//6
f 6//6 106//6 105//6
f 7//6 107//6 106//6
f 8//6 108//6 107//6
f 9//6 109//6 108//6
f 10//6 110//6 109//6
f 11//6 111//6 110//6
f 12//6 112//6 111//6
f 13//6 113//6 112//6
f 14//6 114//6 113//6
f 15//6 115//6 114//6
f 16//6 116//6 115//6
f 17//6 117//6 116//6
f 18//6 118//6 117//6
f 19//6 119//6 118//6
f 20//6 120//6 119//6
f 21//6 121//6 120//6
f 22//6 122//6 121//6
f 23//6 123//6 122//6
f 24//6 124//6 123//6
f 25//6 125//6 124//6
f 26//6 126//6 125//6
f 27//6 127//6 126//6
f 28//6 128//6 127//6
f 29//6 129//6 128//6
f 30//6 130//6 129//6
f 31//6 131//6 130//6
f 32//6 132//6 131//6
f 33//6 133//6 132//6
f 34//6 134//6 133//6
f 35//6 135//6 134//6
f 36//6 136//6 135//6
f 37//6 137//6 136//6
f 38//6 138//6 137//6
f 39//6 139//6 138//6
f 40//6 140//6 139//6
f 41//6 141//6 140//6
f 42//6 142//6 141//6
f 43//6 143//6 142//6
f 44//6 144//6 143//6
f 45//6 145//6 144//6
f 46//6 146//6 145//6
f 47//6 147//6 146//6
f 47//6 48//6 148//6
f 49//6 149//6 148//6
f 50//6 150//6 149//6
f 50//6 51//6 151//6
f 51//6 52//6 152//6
f 52//6 53//6 153//6
f 54//6 154//6 153//6
f 54//6 55//6 155//6
f 55//6 56//6 156//6
f 56//6 57//6 157//6
f 57//6 58//6 158//6
f 58//6 59//6 159//6
f 59//6 60//6 160//6
f 60//6 61//6 161//6
f 61//6 62//6 162//6
f 62//6 63//6 163//6
f 63//6 64//6 164//6
f 64//6 65//6 165//6
f 65//6 66//6 166//6
f 66//6 67//6 167//6
f 67//6 68//6 168//6
f 68//6 69//6 169//6
f 69//6 70//6 170//6
f 70//6 71//6 171//6
f 71//6 72//6 172//6
f 72//6 73//6 173//6
f 73//6 74//6 174//6
f 74//6 75//6 175//6
f 75//6 76//6 176//6
f 76//6 77//6 177//6
f 77//6 78//6 178//6
f 78//6 79//6 179//6
f 79//6 80//6 180//6
f 80//6 81//6 181//6
f 81//6 82//6 182//6
f 82//6 83//6 183//6
f 83//6 84//6 184//6
f 84//6 85//6 185//6
f 85//6 86//6 186//6
f 86//6 87//6 187//6
f 87//6 88//6 188//6
f 88//6 89//6 189//6
f 89//6 90//6 190//6
f 90//6 91//6 191//6
f 91//6 92//6 192//6
f 92//6 93//6 193//6
f 93//6 94//6 194//6
f 94//6 95//6 195//6
f 95//6 96//6 196//6
f 96//6 97//6 197//6
f 97//6 98//6 198//6
f 98//6 99//6 199//6
f 99//6 100//6 200//6
f 100//6 101//6 201//6
f 102//1 202//1 201//1
